<svg xmlns="http://www.w3.org/2000/svg" width="550" height="559"><g class="fa-group"><path class="fa-secondary" d="M466.998 151.502h-384c-35.346 0-64 28.653-64 64v256c0 35.346 28.654 64 64 64h384c35.347 0 64-28.654 64-64v-256c0-35.347-28.653-64-64-64z" fill="#008bc3"/><path class="fa-primary" d="M530.398 50.552l-4.33-15.38c-2.392-8.51-11.231-13.467-19.74-11.07l-423.33 127.4h147.5l288.83-81.21c8.51-2.393 13.467-11.232 11.07-19.74z" opacity=".4" fill="#008bc3"/></g><path d="M442.917 191.377H107.083c-21.393 0-38.75 17.357-38.75 38.75v232.5c0 21.393 17.357 38.75 38.75 38.75h335.834c21.393 0 38.75-17.357 38.75-38.75v-232.5c0-21.393-17.357-38.75-38.75-38.75zM244.404 371.968c2.26-2.018 5.731-1.695 7.427.727l15.742 22.362c1.372 1.937 1.21 4.52-.404 6.216-43.27 45.854-139.5 25.914-139.5-54.815 0-78.55 98.248-96.472 139.258-56.591 1.695 1.614 2.018 2.583.807 4.601l-14.127 24.623c-1.534 2.502-5.005 3.229-7.347 1.372-32.937-25.833-76.37-12.029-76.37 25.187.082 38.75 41.253 56.915 74.514 26.318zm153.708 0c2.26-2.018 5.732-1.695 7.427.727l15.742 22.362c1.373 1.937 1.211 4.52-.403 6.216-43.19 45.935-139.42 25.914-139.42-54.815 0-78.55 98.248-96.472 139.258-56.591 1.695 1.614 2.018 2.583.807 4.601l-14.127 24.623c-1.534 2.502-5.005 3.229-7.347 1.372-32.937-25.833-76.37-12.029-76.37 25.187 0 38.75 41.173 56.915 74.433 26.318z" fill="#fff"/></svg>